<?xml version="1.0" encoding="UTF-8"?>
<!DOCTYPE svg PUBLIC "-//W3C//DTD SVG 1.1//EN" "http://www.w3.org/Graphics/SVG/1.1/DTD/svg11.dtd">
<!-- Creator: CorelDRAW -->
<svg xmlns="http://www.w3.org/2000/svg" xml:space="preserve" width="960px" height="960px" version="1.1" style="shape-rendering:geometricPrecision; text-rendering:geometricPrecision; image-rendering:optimizeQuality; fill-rule:evenodd; clip-rule:evenodd"
viewBox="0 0 960 960"
 xmlns:xlink="http://www.w3.org/1999/xlink"
 xmlns:xodm="http://www.corel.com/coreldraw/odm/2003">
 <defs>
  <style type="text/css">
   <![CDATA[
    .fil6 {fill:#1E022B}
    .fil9 {fill:#5704F5}
    .fil7 {fill:#7426EF}
    .fil4 {fill:#7703F6}
    .fil0 {fill:#9607F4}
    .fil16 {fill:#9905E8}
    .fil25 {fill:#A708D7}
    .fil8 {fill:#A917E8}
    .fil13 {fill:#A924D1}
    .fil5 {fill:#B615F9}
    .fil11 {fill:#D224EE}
    .fil21 {fill:#D52891}
    .fil20 {fill:#F14D8D}
    .fil19 {fill:#F65271}
    .fil2 {fill:#F69936}
    .fil15 {fill:#F86D74}
    .fil10 {fill:#F937B8}
    .fil23 {fill:#F99827}
    .fil18 {fill:#F9A677}
    .fil24 {fill:#F9E2D6}
    .fil22 {fill:#FA3904}
    .fil12 {fill:#FA9947}
    .fil14 {fill:#FCB768}
    .fil17 {fill:#FCBB86}
    .fil1 {fill:#FDB364}
    .fil3 {fill:#FDBC7B}
   ]]>
  </style>
 </defs>
 <g id="Layer_x0020_1">
  <metadata id="CorelCorpID_0Corel-Layer"/>
  <g id="_2240688036512">
   <path class="fil0" d="M461.319 64.083l-0.141 -4.992c-6.143,-5.046 -3.891,1.649 -5.625,-8.203l30.336 1.751 28.813 15.611 16.489 18.313c7.506,16.05 5.178,33.17 7.248,44.553 2.331,-2.994 1.349,-7.968 3.501,-12.341 9.027,4.016 23.854,45.378 25.506,59.268l2.91 20.798c0.887,2.916 0.488,2.117 1.652,3.855 11.073,-2.413 44.923,-22.812 75.091,-15.896 21.409,4.909 36.624,18.395 52.91,30.172 3.104,2.246 3.682,1.939 5.27,5.271 -19.876,0.389 -47.787,-13.359 -69.9,13.092 -18.191,21.759 58.121,-0.444 90.471,20.263 14.597,9.342 29.922,23.517 41.226,36.878 4.507,5.329 9.891,9.526 10.844,16.085 -8.374,-2.605 -33.292,-19.299 -52.392,-26.817 -21.336,-8.399 -46.63,-7.626 -72.792,-7.913 4.363,9.93 43.86,23.079 60.832,34.647 5.023,3.425 2.605,2.645 9.196,5.455 5.772,2.46 67.587,27.511 71.68,30.909 4.461,3.703 2.022,1.634 3.835,5.02 -9.377,-0.581 -16.224,-2.987 -23.683,-4.719 -8.364,-1.942 -17.019,-2.193 -25.441,-3.445 -16.331,-2.428 -30.17,-6.549 -44.441,-9.872 3.514,7.625 22.65,12.325 28.185,18.918 -3.164,1.955 -6.146,2.538 -12.646,-0.905 -6.153,-3.259 -3.443,-4.344 -10.975,-6.354 2.704,6.888 11.606,12.54 18.435,18.475 7.778,6.759 15.867,8.552 28.664,11.057 24.269,4.753 41.158,5.321 67.854,-1.743 23.487,-6.216 58.176,-22.058 78.974,-34.931 13.914,-8.614 22.438,-9.802 24.472,-14.163 -2.85,-1.194 -25.851,0.506 -32.447,0.475 -13.801,-0.064 -23.167,-0.254 -35.733,-2.551 -71.286,-13.033 -62.32,-88.508 -111.343,-109.581 -7.226,-1.915 -7.988,-1.312 -13.837,0.429 0.174,-2.58 0.371,-3.366 0.179,-6.117l-1.287 -6.1c-1.068,-3.886 -1.252,-7.118 -1.664,-12.188l-1.533 1.835c-4.067,5.867 -2.267,6.71 -7.868,10.493l-6.498 -0.775c-4.853,-15.988 -15.777,-28.615 -26.67,-39.52 -8.746,-8.755 -31.018,-23.167 -46.107,-20.913 -8.386,1.366 -31.674,3.286 -42.395,-0.4 0.665,-17.41 11.812,-6.918 12.44,-27.424l-8.307 -5.226c-3.525,-2.482 1.266,-1.18 -5.489,-2.217 -1.223,-0.188 -5.404,-0.15 -7.091,-0.263 0.78,-2.663 2.705,-5.661 3.049,-7.333 0.789,-3.836 -1.5,-2.989 0.982,-8.497l-29.266 2.344 -2.66 -4.877c-0.938,-1.529 -2.038,-3.099 -3.145,-5.327 -18.009,-9.353 -35.018,-19.033 -56.179,-24.382 -10.43,-2.637 -64.223,-11.19 -71.843,-5.497 4.748,2.433 14.065,1.324 28.354,15.515z"/>
   <path class="fil1" d="M114.818 697.731c-1.941,3.744 0.65,4.114 -2.04,1.86l34.7 2.607 -7.216 6.123c-11.293,8.494 -39.583,32.429 -44.812,44.816 13.005,-6.276 1.819,-9.702 19.685,-8.465l3.273 -7.167c3.22,-5.088 1.19,-3.593 3.929,-4.79 1.055,4.571 2.249,3.988 -0.806,9.351 -2.491,4.373 -0.123,-2.581 -2.407,4.061l5.065 7.15c11.026,-16.194 10.014,-16.702 24.714,-28.936 13.585,-11.306 33.436,-24.715 49.061,-31.97 6.445,-2.993 13.675,-4.276 20.536,-6.616 5.282,-1.802 4.331,-1.546 10.79,-2.433 5.085,-0.7 24.936,-8.983 33.501,-3.343 -16.42,0.553 -76.05,27.94 -77.859,33.43 -1.007,3.053 -2.384,-0.892 0.418,2.807 7.207,-3.052 14.421,-8.21 21.425,-12.054 40.604,-22.287 91.182,-31.712 136.241,-19.081 19.142,5.366 34.231,10.512 35.383,31.763 -7.046,-2.481 -13.969,-7.122 -22.092,-10.482 -39.49,-16.333 -86.808,-13.565 -119.511,15.8 -12.97,11.647 -17.127,22.72 -14.661,46.456 7.858,-4.603 3.938,-13.794 30.164,-29.508 110.764,-66.363 187.56,83.428 301.185,80.718 -0.438,-0.198 -0.985,-0.36 -1.362,-0.474l-16.876 -3.545c-5.653,-1.338 -9.877,-3.063 -15.219,-5.723 -7.786,-3.877 -18.764,-11.027 -24.659,-15.931l-20.876 -21.178c-27.008,-34.347 -27.806,-46.25 -47.971,-75.333 -22.766,-32.832 -50.213,-59.285 -90.016,-73.777 -42.294,-15.398 -97.724,-14.436 -138.54,5.298 -15.429,7.459 -41.258,21.47 -49.633,31.354 25.294,-15.003 35.036,-22.838 73.235,-20.536 -18.246,4.205 -43.562,15.193 -59.882,23.507 -11.155,5.681 -45.176,26.591 -46.867,34.241z"/>
   <path class="fil2" d="M244.306 335.718c-0.911,-0.872 -2.081,1.644 0.277,-2.777 3.225,-6.046 5.446,-3.12 7.74,-7.421 1.854,-3.477 0.092,-0.883 -0.192,-1.147 0.042,-0.125 7.667,-4.144 -2.457,-1.582 -3.283,0.831 -8.349,6.061 -11.19,8.67 -4.627,4.248 -8.083,8.464 -13.324,12.219 -6.423,4.603 -30.362,9.586 -39.61,10.351 -18.522,1.533 -83.433,-4.589 -89.647,-12.308 1.366,-3.362 3.894,-3.628 7.984,-4.906 3.895,-1.216 5.854,-1.395 9.402,-2.678 16.231,-5.869 10.191,-2.812 20.09,-5.691 13.464,-3.915 24.474,-8.147 40.103,-9.555 -0.344,-1.528 -0.438,-2.68 -0.872,-4.34 -3.905,-14.971 -2.789,4.678 -5.522,-10.437 -3.022,-16.716 -4.863,-4.999 -4.133,-13.094l16.192 -35.565c3.544,-6.679 4.442,-9.228 8.467,-15.394l9.297 -13.375c9.8,-11.797 4.571,-7.177 9.464,-14.625 3.572,-5.437 5.187,-9.427 6.571,-16.33 -18.122,-25.46 -17.203,-92.815 -12.649,-128.026l45.044 24.886c5.335,2.831 40.926,21.297 42.779,23.64 4.062,-3.399 -5.94,-3.812 6.945,-1.974 5.675,0.809 2.04,3.625 13.854,5.668l-0.74 -1.353c0.026,-0.076 0.141,-0.477 0.199,-0.557 0.075,-0.101 0.327,-0.492 0.445,-0.592 3.363,-2.842 0.895,-1.684 7.097,-1.724 0.018,-3.13 -0.34,-5.121 0.697,-8.016 1.214,-3.394 3.232,-4.403 4.33,-5.394 8.565,1.224 6.207,6.545 13.53,9.316 6.06,-10.716 -3.37,-15.817 10.833,-32.971 -8.427,-5.018 1.656,-1.176 -12.37,-5.298l-3.829 -1.54c-0.243,-0.563 -0.86,-0.378 -1.229,-0.66l-3.771 4.606c-9.35,-2.573 -29.884,-13.546 -39.317,-18.101 -12.347,-5.964 -28.209,-11.883 -41.89,-16.792l-64.126 -21.47c-9.244,-3.987 -10.248,-10.917 -16.484,-12.109 17.993,19.549 -13.006,127.717 21.681,200.653 -5.033,4.903 -13.057,11.084 -17.925,18.035 -5.922,8.457 -8.674,12.896 -13.067,22.919 -17.789,40.584 -31.454,59.166 -76.556,70.839 -25.333,6.556 -43.545,1.353 -68.292,2.777 35.595,19.025 73.063,41.909 112.509,49.58 23.656,4.601 87.203,8.055 106.644,-9.742 3.748,-3.432 14.741,-21.77 17.018,-26.615z"/>
   <path class="fil3" d="M327.882 71.138c0.369,0.282 0.986,0.097 1.229,0.66l3.829 1.54c14.026,4.122 3.943,0.28 12.37,5.298 -14.203,17.154 -4.773,22.255 -10.833,32.971 -7.323,-2.771 -4.965,-8.092 -13.53,-9.316 -1.098,0.991 -3.116,2 -4.33,5.394 -1.037,2.895 -0.679,4.886 -0.697,8.016 -6.202,0.04 -3.734,-1.118 -7.097,1.724 -0.118,0.1 -0.37,0.491 -0.445,0.592 -0.058,0.08 -0.173,0.481 -0.199,0.557l0.74 1.353c-11.814,-2.043 -8.179,-4.859 -13.854,-5.668 -12.885,-1.838 -2.883,-1.425 -6.945,1.974l33.691 16.524c-3.685,1.779 -28.082,2.302 -35.952,4.01 -11.431,2.48 -19.685,7.944 -29.549,10.885 3.09,3.871 -4.913,3.137 5.998,3.137 3.131,-3.844 5.835,-3.286 12.866,-3.393l-4.502 4.904c5.408,13.916 -2.567,12.651 -9.711,18.016 -14.54,10.92 -14.607,6.779 -22.446,20.05 -1.033,1.749 -1.094,1.705 -1.847,2.73l-15.188 33.069c-1.354,4.953 -2.311,11.657 -3.638,17.337 -2.714,11.611 -5.297,13.527 1.894,16.287 2.569,-39.347 29.541,-55.346 65.468,-59.807 3.968,-0.494 35.709,-3.975 38.385,-0.486 2.822,5.202 1.345,14.975 0.663,21.582 4.029,-2.961 2.053,-0.258 4.923,-5.274 8.552,-14.942 -2.452,-42.024 36.592,-75.809 3.142,-2.718 14.29,-10.139 19.69,-9.796 18.729,1.19 21.363,43.96 22.947,52 1.522,7.729 2.855,3.591 3.66,12.196 -1.156,0.803 -0.81,-0.15 0.218,-0.825 3.079,-2.024 -1.266,-1.74 2.328,-0.679 -1.611,13.682 -6.948,35.2 -16.019,44.793 -3.884,4.106 -5.696,5.112 -3.683,8.192 16.173,-21.519 22.292,-37.242 24.482,-67.979 1.022,-14.341 -1.92,-28.648 -7.385,-39.871 -2.441,-5.012 -6.112,-9.991 -8.996,-13.675 -3.779,-4.826 -6.919,-6.106 -13.967,-8.982 29.263,-2.733 37.941,7.77 46.903,27.194 10.105,21.898 6.331,42.069 4.377,66.083 10.003,-18.416 22.197,-28.272 28.08,-54.792 5.698,-25.685 0.676,-50.186 -13.054,-66.822 -34.009,-41.206 -105.968,-32.275 -127.466,-15.894z"/>
   <path class="fil1" d="M256.31 147.652c-1.795,2.918 -20.882,14.23 -25.593,19.643 -4.381,5.036 -15.98,20.455 -17.771,28.438 -1.384,6.903 -2.999,10.893 -6.571,16.33 -4.893,7.448 0.336,2.828 -9.464,14.625l-9.297 13.375c-4.025,6.166 -4.923,8.715 -8.467,15.394l-16.192 35.565c-0.73,8.095 1.111,-3.622 4.133,13.094 2.733,15.115 1.617,-4.534 5.522,10.437 0.434,1.66 0.528,2.812 0.872,4.34 -15.629,1.408 -26.639,5.64 -40.103,9.555 -9.899,2.879 -3.859,-0.178 -20.09,5.691 -3.548,1.283 -5.507,1.462 -9.402,2.678 -4.09,1.278 -6.618,1.544 -7.984,4.906 6.214,7.719 71.125,13.841 89.647,12.308 9.248,-0.765 33.187,-5.748 39.61,-10.351 5.241,-3.755 8.697,-7.971 13.324,-12.219 2.841,-2.609 7.907,-7.839 11.19,-8.67 10.124,-2.562 2.499,1.457 2.457,1.582 0.284,0.264 2.046,-2.33 0.192,1.147 -2.294,4.301 -4.515,1.375 -7.74,7.421 -2.358,4.421 -1.188,1.905 -0.277,2.777 5.177,-0.736 1.538,-2.674 11.695,-7.833 8.451,-4.293 29.909,-11.226 45.549,-18.641 -5.402,-0.755 -6.153,0.07 -10.135,-1.057 2.924,-7.379 -1.867,-2.46 9.697,-7.125 6.242,-2.517 71.136,-44.506 76.115,-64.574 -9.442,-5.175 8.312,1.99 -3.008,-0.527 -5.63,-1.252 -5.254,-2.353 -6.955,-3.149 -15.328,23.299 -65.617,34.251 -88.937,32.756 3.131,-0.532 17.265,-17.384 19.29,-21.122 1.069,-1.974 1.685,-3.543 1.732,-5.272 0.29,-10.659 -13.394,-11.01 -21.462,-9.724 -1.769,10.142 -4.278,18.204 -10.631,25.421 -10.942,12.431 -39.884,27.566 -54.729,34.177 -4.447,1.981 -5.314,4.052 -10.134,5.529 1.387,-5.446 6.132,-10.451 9.38,-16.734 3.062,-5.922 5.084,-11.174 7.963,-18.054 -7.191,-2.76 -4.608,-4.676 -1.894,-16.287 1.327,-5.68 2.284,-12.384 3.638,-17.337l15.188 -33.069c0.753,-1.025 0.814,-0.981 1.847,-2.73 7.839,-13.271 7.906,-9.13 22.446,-20.05 7.144,-5.365 15.119,-4.1 9.711,-18.016l4.502 -4.904c-7.031,0.107 -9.735,-0.451 -12.866,3.393 -10.911,0 -2.908,0.734 -5.998,-3.137z"/>
   <path class="fil2" d="M185.35 716.216c-2.802,-3.699 -1.425,0.246 -0.418,-2.807 1.809,-5.49 61.439,-32.877 77.859,-33.43 -8.565,-5.64 -28.416,2.643 -33.501,3.343 -6.459,0.887 -5.508,0.631 -10.79,2.433 -6.861,2.34 -14.091,3.623 -20.536,6.616 -15.625,7.255 -35.476,20.664 -49.061,31.97 -14.7,12.234 -13.688,12.742 -24.714,28.936l-5.065 -7.15c2.284,-6.642 -0.084,0.312 2.407,-4.061 3.055,-5.363 1.861,-4.78 0.806,-9.351 -2.739,1.197 -0.709,-0.298 -3.929,4.79l-3.273 7.167c-17.866,-1.237 -6.68,2.189 -19.685,8.465 5.229,-12.387 33.519,-36.322 44.812,-44.816l7.216 -6.123 -34.7 -2.607c2.69,2.254 0.099,1.884 2.04,-1.86 -4.579,-0.438 -4.731,3.192 -3.904,-6.683l7.378 -24.345c7.069,-17.929 18.899,-36.248 32.471,-48.676 12.445,-11.395 20.162,-12.032 24.613,-16.406 -25.898,0.256 -40.211,3.698 -56.494,16.103 -12.836,9.779 -25.013,23.016 -33.024,39.035 -15.827,31.648 -24.966,77.337 -25.077,119.436 -0.133,50.956 10.79,76.525 30.919,113.41 13.422,24.597 49.42,62.917 74.902,68.324 -4.305,-4.189 -7.931,-5.9 -13.024,-11.372 -4.015,-4.312 -7.077,-6.59 -11.919,-12.064 -22.506,-25.434 -36.378,-71.55 -33.95,-107.241 2.415,-35.5 26.702,-69.875 51.792,-90.697l25.849 -20.339z"/>
   <path class="fil2" d="M58.654 456.404l59.378 -4.194c-1.019,21.995 14.097,31.44 33.18,36.775 25.378,7.097 37.142,7.76 64.498,4.865 -5.454,8.027 -24.741,21.285 -35.249,24.586l-6.586 2.187c5.904,2.315 18.281,3.353 25.814,5.543 44.347,12.894 72.199,30.622 128.521,4.63 9.128,-4.213 30.927,-18.298 38.599,-27.051 -35.084,8.735 -78.705,15.723 -114.791,4.725 2.312,-13.492 28.932,-44.912 29.146,-82.212 -8.359,15.139 -27.153,27.217 -43.065,37.043 -12.532,7.739 -47.946,25.895 -56.863,6.208 2.211,-6.896 4.581,-5.452 8.187,-12.845 3.351,-6.872 3.393,-7.138 11.344,-9.362 25.38,-7.098 71.844,-22.761 81.058,-46.062 -5.631,3.238 -4.459,5.433 -18.475,12.156l-44.404 15.715c-7.364,1.879 -16.715,2.727 -23.47,5.144 3.665,-4.23 -1.053,-2.61 8.326,-9.721 24.97,-18.935 31.741,-37.962 46.386,-55.82 3.76,-4.585 17.336,-16.677 18.942,-21.496 -3.71,4.6 -13.898,12.09 -18.931,18.398 -3.023,3.789 -4.969,7.562 -8.133,11.397 -25.808,31.281 -11.748,10.256 -69.046,31.746 -40.117,15.047 -53.545,26.052 -99.016,40.857l-11.187 3.884c-5.071,2.629 -1.639,0.4 -4.163,2.904z"/>
   <path class="fil2" d="M219.736 259.789c-2.879,6.88 -4.901,12.132 -7.963,18.054 -3.248,6.283 -7.993,11.288 -9.38,16.734 4.82,-1.477 5.687,-3.548 10.134,-5.529 14.845,-6.611 43.787,-21.746 54.729,-34.177 6.353,-7.217 8.862,-15.279 10.631,-25.421 8.068,-1.286 21.752,-0.935 21.462,9.724 -0.047,1.729 -0.663,3.298 -1.732,5.272 -2.025,3.738 -16.159,20.59 -19.29,21.122 23.32,1.495 73.609,-9.457 88.937,-32.756 1.701,0.796 1.325,1.897 6.955,3.149 11.32,2.517 -6.434,-4.648 3.008,0.527 -4.979,20.068 -69.873,62.057 -76.115,64.574 -11.564,4.665 -6.773,-0.254 -9.697,7.125 3.982,1.127 4.733,0.302 10.135,1.057 19.612,-6.431 36.335,-17.19 51.51,-27.033 12.635,-8.195 36.786,-26.937 41.848,-36.335 -2.013,-3.08 -0.201,-4.086 3.683,-8.192 9.071,-9.593 14.408,-31.111 16.019,-44.793 -3.594,-1.061 0.751,-1.345 -2.328,0.679 -1.028,0.675 -1.374,1.628 -0.218,0.825 -0.805,-8.605 -2.138,-4.467 -3.66,-12.196 -1.584,-8.04 -4.218,-50.81 -22.947,-52 -5.4,-0.343 -16.548,7.078 -19.69,9.796 -39.044,33.785 -28.04,60.867 -36.592,75.809 -2.87,5.016 -0.894,2.313 -4.923,5.274 0.682,-6.607 2.159,-16.38 -0.663,-21.582 -2.676,-3.489 -34.417,-0.008 -38.385,0.486 -35.927,4.461 -62.899,20.46 -65.468,59.807z"/>
   <path class="fil4" d="M560.987 78.447c1.107,2.228 2.207,3.798 3.145,5.327l2.66 4.877 29.266 -2.344c-2.482,5.508 -0.193,4.661 -0.982,8.497 -0.344,1.672 -2.269,4.67 -3.049,7.333 1.687,0.113 5.868,0.075 7.091,0.263 6.755,1.037 1.964,-0.265 5.489,2.217l8.307 5.226c-0.628,20.506 -11.775,10.014 -12.44,27.424 10.721,3.686 34.009,1.766 42.395,0.4l-7.619 -1.838c-2.72,-0.106 -6.177,0.265 -9.121,0.259l-1.706 -4.783c-2.611,-6.46 -7.464,-6.061 -5.74,-12.079 1.939,-2.879 22.245,-13.583 26.141,-15.843 9.137,-5.296 16.499,-10.738 26.51,-15.484 9.806,-4.648 18.636,-9.193 27.857,-14.411 4.837,-2.738 7.793,-4.209 13.515,-7.366 5.45,-3.006 6.483,-5.292 14.146,-5.854 1.593,26.611 3.811,82.519 -0.837,109.077 -2.064,11.791 -5.468,17.287 -7.419,28.923l-2.95 -0.168 6.498 0.775c5.601,-3.783 3.801,-4.626 7.868,-10.493l1.533 -1.835c0.412,5.07 0.596,8.302 1.664,12.188l1.287 6.1c0.192,2.751 -0.005,3.537 -0.179,6.117 5.849,-1.741 6.611,-2.344 13.837,-0.429 -3.179,-4.47 -6.295,-0.259 1.934,-19.884 9.827,-23.433 11.205,-79.589 9.274,-106.01 -0.487,-6.66 -1.378,-5.029 -2.204,-12.003l-2.882 -40.625c-0.259,-15.043 3.359,-14.532 4.273,-25.778 -8.673,0.57 -4.872,1.718 -11.211,5.64 -5.794,3.584 -29.186,10.966 -36.167,13.359 -4.253,1.458 -8.709,2.008 -13.304,3.531l-84.57 31.198c-8.328,3.407 -14.069,5.955 -22.254,10.727l-20.539 13.999c-5.453,-2.273 -4.528,-3.469 -9.517,-6.23z"/>
   <path class="fil0" d="M749.426 433.429c-1.809,1.107 0.231,0.783 -3.194,0.974 -5.375,0.3 -46.685,-13.523 -55.797,-15.753 -25.257,-6.182 -40.656,-8.035 -70.545,-6.101 7.259,8.641 70.347,29.43 84.969,35.313 14.1,5.673 25.335,5.967 29.975,11.123 -0.364,0.251 -0.945,0.087 -1.178,0.606 -0.236,0.521 -0.882,0.456 -1.216,0.549 -2.427,0.671 1.159,1.638 -8.464,0.668 -3.293,-0.332 -6.571,-1.061 -10.692,-1.641 -8.749,-1.232 -13.391,-4.599 -21.44,-5.039 0.073,9.633 4.176,14.09 10.709,18.697 3.763,2.654 4.883,3.155 9.762,5.354 3.464,1.562 2.17,0.607 4.852,2.52l4.073 3.844c-0.305,0.249 -0.819,0.169 -0.984,0.656 -0.163,0.486 -0.764,0.509 -0.992,0.633l-6.941 3.221c12.11,13.165 46.018,8.095 56.757,4.701 21.833,-6.901 29.951,-13.583 29.874,-39.355 22.527,-1.812 41.97,5.752 65.896,2.96 -3.58,-2.578 -41.911,-17.742 -54.698,-24.701 -10.072,-5.481 -16.105,-8.604 -25.187,-13.783 -16.063,-9.158 -34.263,-19.668 -49.106,-30.645l-22.148 -18.345c-8.581,-6.976 -38.904,-29.48 -51.502,-29.264 -9.96,11.642 -7.746,13.424 5.919,29.771 11.986,14.339 34.886,35.662 51.076,45.25 7.536,4.462 25.872,12.581 30.222,17.787z"/>
   <path class="fil0" d="M415.725 289.021c0.174,9.489 16.095,41.27 44.628,42.419 0.501,22.256 -14.828,45.786 -38.399,54.127 -32.863,11.628 -55.548,-1.983 -84.401,0.118 2.23,16.09 30.484,32.202 48.19,35.102 18.27,2.993 40.474,1.033 56.948,-5.373 4.209,-1.637 12,-5.252 16.823,-6.042 9.392,-1.539 9.807,1.307 16.321,4.175 4.458,1.964 12.146,3.082 16.824,4.584 10.361,3.329 26.009,4.641 38.807,3.425 20.054,-1.904 49.873,-19.251 49.125,-35.672 -30.906,-0.252 -79.255,18.469 -102.71,-19.172 -5.064,-8.127 -11.064,-24.574 -9.036,-35.512 14.038,-5.852 33.42,-26.453 32.934,-43.598 -16.037,-12.857 -70.01,-8.658 -86.054,1.419z"/>
   <path class="fil5" d="M461.319 64.083c10.594,11.568 17.763,22.954 22.308,41.213 8.864,35.609 9.048,74.557 -8.041,108.313 -9.849,19.456 -18.195,23.214 -30.575,33.403 9.325,4.455 48.646,-29.035 60.03,-42.952 10.252,-12.535 36.173,-52.061 33.398,-72.944 -2.07,-11.383 0.258,-28.503 -7.248,-44.553l-16.489 -18.313 -28.813 -15.611 -30.336 -1.751c1.734,9.852 -0.518,3.157 5.625,8.203l0.141 4.992z"/>
   <path class="fil6" d="M642.869 137.667c15.089,-2.254 37.361,12.158 46.107,20.913 10.893,10.905 21.817,23.532 26.67,39.52l2.95 0.168c1.951,-11.636 5.355,-17.132 7.419,-28.923 4.648,-26.558 2.43,-82.466 0.837,-109.077 -7.663,0.562 -8.696,2.848 -14.146,5.854 -5.722,3.157 -8.678,4.628 -13.515,7.366 -9.221,5.218 -18.051,9.763 -27.857,14.411 -10.011,4.746 -17.373,10.188 -26.51,15.484 -3.896,2.26 -24.202,12.964 -26.141,15.843 -1.724,6.018 3.129,5.619 5.74,12.079l1.706 4.783c2.944,0.006 6.401,-0.365 9.121,-0.259l7.619 1.838z"/>
   <path class="fil6" d="M212.946 195.733c1.791,-7.983 13.39,-23.402 17.771,-28.438 4.711,-5.413 23.798,-16.725 25.593,-19.643 9.864,-2.941 18.118,-8.405 29.549,-10.885 7.87,-1.708 32.267,-2.231 35.952,-4.01l-33.691 -16.524c-1.853,-2.343 -37.444,-20.809 -42.779,-23.64l-45.044 -24.886c-4.554,35.211 -5.473,102.566 12.649,128.026z"/>
   <path class="fil5" d="M445.725 553.218c-12.051,1.156 -12.133,-3.892 -24.836,2.821 -21.198,11.204 -33.06,36.496 -30.167,63.684 1.755,16.498 13.747,36.338 29.448,19.667 8.561,-9.091 11.311,-18.796 17.17,-29.101 6.464,-11.369 2.204,-9.727 3.999,-12.994 8.948,-8.485 11.273,-4.796 19.425,-9.02 0.251,-8.136 -3.982,-9.183 -2.282,-22.051 4.94,-37.38 19.466,-48.411 22.019,-55.015 -8.969,1.241 -18.446,8.932 -23.461,14.681 -5.156,5.91 -4.494,4.157 -7.268,12.526 -1.307,3.945 -2.531,11.315 -4.047,14.802z"/>
   <path class="fil7" d="M622.999 304.139c-0.035,1.917 -6.636,15.098 4.633,17.022 8.182,-0.631 7.303,-2.662 10.963,-8.001 -2.981,-8.123 -2.704,-0.412 -4.867,-7.517 2.755,-5.087 4.561,-3.343 4.7,-10.527 0.102,-5.281 -1.998,-8.144 -4.285,-11.048l-16.348 -0.902c-6.947,18.247 -0.99,18.034 5.204,20.973z"/>
   <path class="fil7" d="M591.418 290.363c-14.228,7.267 -8.824,34.268 11.191,26.548 14.332,-5.527 5.385,-35.014 -11.191,-26.548z"/>
   <path class="fil7" d="M661.123 323.994c9.509,-8.415 -0.435,-26.409 -15.451,-23.805 -5.376,9.5 -6.941,18.918 3.829,24.41 4.747,2.419 7.898,1.938 11.622,-0.605z"/>
  </g>
  <g id="_2240688037232">
   <path class="fil8" d="M511.731 670.892l2.061 -0.147c0.15,-6.654 1.952,-3.498 4.092,-10.792 0.321,-1.094 0.36,-1.476 1.037,-2.816 0.24,-0.475 1.342,-2.199 1.381,-2.272l2.687 -5.495c1.634,-3.662 -0.483,-1.839 2.516,-5.168l3.226 -4.232c2.576,-3.029 4.609,-5.442 7.413,-8.394 9.202,-9.687 15.635,-13 26.993,-19.323 3.901,-2.171 7.854,-3.944 12.699,-1.962l-4.949 2.939c-0.131,0.077 -0.311,0.2 -0.43,0.288 -2.86,2.134 -2.843,4.739 -5.697,7 -1.001,0.793 -3.629,2.872 -4.081,3.361 -0.106,0.114 -0.24,0.291 -0.342,0.409l-5.243 5.341c-0.16,0.146 -0.622,0.56 -0.784,0.704 -0.114,0.102 -0.283,0.248 -0.397,0.35l-3.533 3.961c-0.108,0.119 -0.278,0.266 -0.388,0.381 -0.107,0.113 -0.29,0.246 -0.394,0.357 -3.695,3.92 -12.068,22.652 -12.655,23.914 -2.715,5.835 -3.659,12.995 -3.991,19.37 -0.233,4.491 -0.861,3.539 -1.287,6.751 -1.33,10.032 0.186,19.809 0.658,29.213 0.144,2.889 0.678,3.986 1.136,6.128l1.586 5.883c0.736,2.216 0.634,3.863 1.262,6.426 0.466,1.903 1.389,3.457 2.031,6.061 0.477,1.937 0.503,4.217 1.047,6.598l11.265 26.099c4.874,6.513 9.942,15.704 15.786,22.38l5.111 7.685c3.415,5.66 3.567,3.998 8.166,9.038l39.83 36.571c1.795,1.508 2.506,1.927 4.508,2.877 8.902,4.223 20.227,13.24 35.263,18.026 14.111,4.49 25.459,7.893 40.827,8.289 0.941,0.025 1.047,0.066 1.984,-0.108 1.713,-0.32 1.571,-0.524 1.727,-0.633l-17.317 -1.593c-0.754,-2.038 -1.044,0.465 0.025,-1.123 1.029,-1.528 0.241,-0.141 0.296,-0.145 0.018,-0.002 0.187,0.122 0.203,0.127 0.02,0.005 0.184,0.103 0.217,0.194 -14.177,-0.215 -10.322,-1.926 -15.775,-3.438 -16.51,-4.575 -36.412,-15.248 -49.895,-25.284l-9.489 -9.242c-5.518,-5.404 -13.12,-9.817 -19.172,-18.226 -3.753,-1.397 -1.325,-0.109 -3.17,-2.957 -1.666,-2.573 -0.588,-1.088 -2.748,-3.183 -1.79,-1.735 -3.7,-4.21 -5.57,-6.457 -3.45,-4.144 -7.408,-9.733 -9.971,-13.811 -1.933,-3.075 -1.837,-4.259 -4.145,-7.215 -1.948,-2.496 -3.29,-4.552 -4.606,-7.296 -3.994,-8.33 -6.167,-10.695 -9.406,-19.716 -5.021,-13.984 -6.242,-14.26 -9.263,-32.788 -1.203,-7.38 -2.052,-31.858 0.647,-38.733 1.496,-3.813 -0.376,-0.596 3.139,-2.697l0.09 -5.97c12.563,0.002 6.032,-0.855 11.866,-2.305l0.293 -7.38 12.552 -0.141c0.855,2.171 -0.244,-0.72 -0.587,2.863l3.062 0.005c-0.563,1.451 0.336,0.845 -2.652,2.275 -0.105,0.051 -0.363,0.079 -0.527,0.164l0.22 7.248c4.669,-3.57 1.155,-2.191 4.978,-8.78l1.722 -4.993c0.659,-2.026 1.261,-3.927 1.459,-6.084 1.674,0.003 2.695,-0.613 3.923,2.45 1.285,3.206 -0.59,1.297 -0.342,5.556 1.707,-2.521 -0.362,-1.128 2.368,-2.311 -1.197,6.898 -0.57,-1.623 -0.83,5.602 -0.092,2.558 0.15,0.305 -0.513,1.655 -1.502,3.063 -2.655,5.172 -3.287,8.648l1.498 0c0.844,5.254 -0.826,0.949 2.534,3.068l2.428 1.628c2.805,3.353 -1.028,3.945 4.028,4.294 -0.979,3.631 0.999,3.015 0.863,7.425 -0.088,2.841 -0.235,2.096 0.394,4.867 1.278,-1.073 0.958,0.085 2.477,-4.11 2.487,-6.867 13.488,-21.62 17.949,-21.805 -3.382,-0.868 -3.018,-1.999 -3.707,-2.958 -2.782,0.024 -3.125,0.592 -5.094,-0.651 1.249,-3.892 -0.51,0.875 1.784,-1.876 0.861,-1.033 0.791,0.491 1.028,-1.856 -4.467,-1.065 -3.256,-2.767 -6.172,-3.558 -3.576,-0.969 -6.603,1.32 -6.234,-2.836 0.723,-8.139 23.914,-20.465 35.639,-20.883 5.735,-0.204 19.169,0.684 24.289,3.716 3.21,1.9 -2.1,0.13 4.193,1.568 6.244,1.428 1.162,2.577 8.586,5.759 1.221,0.524 5.178,2.541 5.943,3.188 4.972,4.215 6.583,4.5 6.311,8.567 -0.349,5.213 0.394,2.234 -1.626,3.448 4.923,-1.262 2.531,2.246 6.82,4.868 3.888,2.378 2.704,-0.313 5.334,3.028 3.663,4.654 3.496,3.33 4.601,7.025 6.43,5.36 11.194,11.536 15.616,18.452 4.562,7.136 1.801,5.545 5.364,5.681 0.471,-1.093 2.22,-9.958 2.779,-12.133 3.045,-11.862 7.019,-19.323 15.291,-28.818 12.092,-13.881 31.465,-30.7 49.505,-39.587 25.537,-12.58 44.27,-15.478 74.737,-12.233 21.727,2.315 41.234,18.802 52.239,37.003 10.673,17.654 16.712,51.361 14.424,73.696 -3.716,36.285 -7.313,30.926 -10.56,48.246l1.362 -1.806c0.087,-0.144 0.185,-0.339 0.266,-0.489l3.285 -7.128c14.533,-33.561 14.594,-73.913 2.808,-108.385l-6.445 -13.832c-1.946,-3.8 -3.114,-4.675 -5.356,-8.09 -13.821,-21.064 -35.778,-30.712 -61.556,-33.602 -22.499,-2.522 -48.863,2.329 -69.767,10.803 -20.222,8.199 -33.98,16.48 -49.06,31.975 2.533,0.614 0.631,-0.945 2.014,1.096 -1.237,0.986 -1.498,0.478 -0.982,1.756 1.683,-2.183 0.597,-1.551 3.131,-2.949 -1.267,3.573 -4.173,6.255 -6.193,9.122 -2.279,3.233 -3.786,5.19 -5.629,8.555 -1.791,3.271 -3.497,6.199 -5.499,9.496 -4.685,7.714 -2.279,6.646 -4.54,9.631 -1.783,-0.863 -4.547,-9.094 -5.549,-11.557 -1.631,-4.006 -3.839,-6.549 -5.56,-10.81 -2.64,-6.538 -8.777,-15.075 -13.182,-20.667 -6.03,-7.654 -19.607,-17.905 -28.315,-22.491 -1.989,-1.047 -3.621,-1.901 -5.532,-2.758l-5.71 -3.228 -0.267 0.214c-2.475,-0.55 -6.218,-1.639 -8.826,-2.476 -9.188,-2.948 -13.327,-4.484 -25.192,-5.086 -25.665,-1.301 -24.242,4.42 -24.648,-5.72 -0.156,-3.925 -0.882,-3.114 -1.884,-4.825 -0.748,-1.278 0.696,-1.212 -3.757,-0.294l-0.46 -1.745c-9.207,1.068 -21.612,6.865 -27.958,11.184l-16.198 13.017c-15.217,15.019 -20.184,27.356 -26.565,46.691 -0.639,1.934 -0.498,0.563 -0.797,3.442 -0.285,2.739 -0.477,5.988 -0.616,8.756z"/>
   <path class="fil9" d="M511.731 670.892l-0.813 3.202c-1.627,14.966 1.378,34.658 4.893,48.784 4.6,18.482 3.069,9.551 5.44,16.034 0.643,1.759 0.781,3.162 1.54,5.21 0.514,1.386 1.413,4.564 1.979,5.734 0.598,1.237 1.302,2.071 2.269,4.335 2.786,6.523 13.76,25.381 17.869,31.617l12.871 16.294c3.153,4.267 7.163,8.047 10.77,13.294l26.867 25.56c3.511,2.257 4.068,3.954 7.755,6.467l16.966 11.496c12.639,8.489 33.228,18.583 48.492,21.968l11.517 2.581c23.374,3.762 39.409,0.296 61.025,-5.87 -8.01,0.703 -7.486,-1.185 -8.917,-1.826 -1.714,-0.768 -21.654,0.425 -28.402,0.178 -0.156,0.109 -0.014,0.313 -1.727,0.633 -0.937,0.174 -1.043,0.133 -1.984,0.108 -15.368,-0.396 -26.716,-3.799 -40.827,-8.289 -15.036,-4.786 -26.361,-13.803 -35.263,-18.026 -2.002,-0.95 -2.713,-1.369 -4.508,-2.877l-39.83 -36.571c-4.599,-5.04 -4.751,-3.378 -8.166,-9.038l-5.111 -7.685c-5.844,-6.676 -10.912,-15.867 -15.786,-22.38l-11.265 -26.099c-0.544,-2.381 -0.57,-4.661 -1.047,-6.598 -0.642,-2.604 -1.565,-4.158 -2.031,-6.061 -0.628,-2.563 -0.526,-4.21 -1.262,-6.426l-1.586 -5.883c-0.458,-2.142 -0.992,-3.239 -1.136,-6.128 -0.472,-9.404 -1.988,-19.181 -0.658,-29.213 0.426,-3.212 1.054,-2.26 1.287,-6.751 0.332,-6.375 1.276,-13.535 3.991,-19.37 0.587,-1.262 8.96,-19.994 12.655,-23.914 0.104,-0.111 0.287,-0.244 0.394,-0.357 0.11,-0.115 0.28,-0.262 0.388,-0.381l3.533 -3.961c0.114,-0.102 0.283,-0.248 0.397,-0.35 0.162,-0.144 0.624,-0.558 0.784,-0.704l5.243 -5.341c0.102,-0.118 0.236,-0.295 0.342,-0.409 0.452,-0.489 3.08,-2.568 4.081,-3.361 2.854,-2.261 2.837,-4.866 5.697,-7 0.119,-0.088 0.299,-0.211 0.43,-0.288l4.949 -2.939c-4.845,-1.982 -8.798,-0.209 -12.699,1.962 -11.358,6.323 -17.791,9.636 -26.993,19.323 -2.804,2.952 -4.837,5.365 -7.413,8.394l-3.226 4.232c-2.999,3.329 -0.882,1.506 -2.516,5.168l-2.687 5.495c-0.039,0.073 -1.141,1.797 -1.381,2.272 -0.677,1.34 -0.716,1.722 -1.037,2.816 -2.14,7.294 -3.942,4.138 -4.092,10.792l-2.061 0.147z"/>
   <path class="fil10" d="M592.945 817.22c6.052,8.409 13.654,12.822 19.172,18.226l9.489 9.242c13.483,10.036 33.385,20.709 49.895,25.284 5.453,1.512 1.598,3.223 15.775,3.438 -0.033,-0.091 -0.197,-0.189 -0.217,-0.194 -0.016,-0.005 -0.185,-0.129 -0.203,-0.127 -0.055,0.004 0.733,-1.383 -0.296,0.145 -1.069,1.588 -0.779,-0.915 -0.025,1.123l17.317 1.593c6.748,0.247 26.688,-0.946 28.402,-0.178 1.431,0.641 0.907,2.529 8.917,1.826 5.339,-1.589 14.32,-5.069 17.784,-7.895l-0.05 -0.821c0.062,-0.298 -0.048,-0.303 0.229,-0.819 0.902,-1.68 3.704,-2.581 5.061,-3.333 4.796,-2.658 2.616,-2.959 2.82,-4.515 0.178,-0.106 0.44,-0.235 0.542,-0.306 2.112,-1.485 0.949,-1.942 2.214,-0.874 -0.089,-0.2 -0.165,-0.498 -0.225,-0.618 -1.337,-2.693 0.337,-1.09 -1.36,-1.642 -0.975,3.191 -1.172,2.193 -4.278,2.937 -4.728,1.132 -2.483,1.488 -6.009,1.113 -7.239,-0.77 -6.538,1.6 -12.522,1.737l7.96 -6.305c4.053,-2.955 3.142,-2.791 7.638,-5.051 -1.893,1.135 -2.976,2.023 -5.272,0.481 0.148,-0.17 0.348,-0.375 0.465,-0.491l14.298 -14.39c0.768,-1.043 1.104,-1.388 1.956,-2.518 2.905,-3.852 1.861,-2.277 2.896,-5.828 0.178,-0.609 0.501,-1.528 0.582,-1.759 0.056,-0.155 0.684,-1.833 0.807,-2.165 2.271,-6.144 3.18,-5.205 5.069,-14.4 2.569,-12.507 2.47,-21.296 -1.557,-32.192 5.88,20.705 0.394,44.094 -12.255,59.256 -12.947,15.52 -29.721,24.857 -52.221,24.555 -36.61,-0.489 -74.352,-32.354 -94.347,-58.772 -14.35,-18.958 -28.352,-48.544 -29.977,-71.946l-2.383 0.54 -0.297 4.235 -3.291 -2.425c-1.09,2.262 3.739,29.091 5.637,33.8 1.871,4.639 -1.055,0.683 2.875,8.426 1.018,2.008 0.813,2.377 1.502,4.535l-2.462 -1.884c-2.631,-3.675 -0.11,-5.673 -6.335,-8.487 -0.427,1.948 -0.878,4.534 -1.428,6.215 -0.911,2.781 -1.346,2.233 -1.549,5.877 -3.656,-0.082 -1.988,-0.907 -4.417,0.015 0.395,5.349 -0.693,-0.382 1.893,4.317l1.529 2.974c0.743,1.607 -0.005,1.473 0.039,3.185 0.152,5.999 3.884,9.16 4.655,10.906 2.652,6.012 5.627,10.238 5.558,13.954z"/>
   <path class="fil11" d="M592.945 817.22c0.069,-3.716 -2.906,-7.942 -5.558,-13.954 -0.771,-1.746 -4.503,-4.907 -4.655,-10.906 -0.044,-1.712 0.704,-1.578 -0.039,-3.185l-1.529 -2.974c-2.586,-4.699 -1.498,1.032 -1.893,-4.317 2.429,-0.922 0.761,-0.097 4.417,-0.015 0.203,-3.644 0.638,-3.096 1.549,-5.877 0.55,-1.681 1.001,-4.267 1.428,-6.215 6.225,2.814 3.704,4.812 6.335,8.487l2.462 1.884c-0.689,-2.158 -0.484,-2.527 -1.502,-4.535 -3.93,-7.743 -1.004,-3.787 -2.875,-8.426 -1.898,-4.709 -6.727,-31.538 -5.637,-33.8l3.291 2.425 0.297 -4.235 2.383 -0.54c-0.202,-4.7 -0.33,-11.014 0.102,-15.649 0.369,-3.963 2.383,-9.71 1.871,-13.237 -0.629,-2.771 -0.482,-2.026 -0.394,-4.867 0.136,-4.41 -1.842,-3.794 -0.863,-7.425 -5.056,-0.349 -1.223,-0.941 -4.028,-4.294l-2.428 -1.628c-3.36,-2.119 -1.69,2.186 -2.534,-3.068l-1.498 0c0.632,-3.476 1.785,-5.585 3.287,-8.648 0.663,-1.35 0.421,0.903 0.513,-1.655 0.26,-7.225 -0.367,1.296 0.83,-5.602 -2.73,1.183 -0.661,-0.21 -2.368,2.311 -0.248,-4.259 1.627,-2.35 0.342,-5.556 -1.228,-3.063 -2.249,-2.447 -3.923,-2.45 -0.198,2.157 -0.8,4.058 -1.459,6.084l-1.722 4.993c-3.823,6.589 -0.309,5.21 -4.978,8.78l-0.22 -7.248c0.164,-0.085 0.422,-0.113 0.527,-0.164 2.988,-1.43 2.089,-0.824 2.652,-2.275l-3.062 -0.005c0.343,-3.583 1.442,-0.692 0.587,-2.863l-12.552 0.141 -0.293 7.38c-5.834,1.45 0.697,2.307 -11.866,2.305l-0.09 5.97c-3.515,2.101 -1.643,-1.116 -3.139,2.697 -2.699,6.875 -1.85,31.353 -0.647,38.733 3.021,18.528 4.242,18.804 9.263,32.788 3.239,9.021 5.412,11.386 9.406,19.716 1.316,2.744 2.658,4.8 4.606,7.296 2.308,2.956 2.212,4.14 4.145,7.215 2.563,4.078 6.521,9.667 9.971,13.811 1.87,2.247 3.78,4.722 5.57,6.457 2.16,2.095 1.082,0.61 2.748,3.183 1.845,2.848 -0.583,1.56 3.17,2.957z"/>
   <path class="fil12" d="M853.489 713.867c1.427,3.095 2.855,4.857 4.457,8.359 1.398,3.058 2.507,5.5 3.68,9.059 2.103,6.374 3.775,12.905 4.56,20.088 1.73,15.837 1.776,31.884 -1.55,46.876 -10.507,47.358 -27.536,61.211 -30.648,69.884 1.968,0.27 1.675,0.065 3.216,0.765l1.886 1.269c0.103,0.078 0.293,0.26 0.448,0.379l18.844 -20.806c18.982,-22.975 33.275,-50.472 36.036,-82.874 -1.824,-4.467 4.429,-16.071 -5.499,-37.994 -0.074,-0.162 -0.173,-0.349 -0.246,-0.511 -0.074,-0.161 -0.171,-0.35 -0.243,-0.511l-1.045 -2.679c-0.069,-0.179 -0.135,-0.381 -0.207,-0.558 -0.092,-0.223 -0.37,-0.863 -0.471,-1.077 -0.057,-0.122 -0.581,-1.085 -0.798,-1.493l-11.341 -20.631c-2.591,3.828 -2.721,3.386 -4.395,3.46 -4.505,0.197 -7.598,-3.454 -11.57,2.758l-4.559 2.977c-0.106,-0.179 -0.425,0.112 -0.631,0.23l0.076 3.03z"/>
   <path class="fil13" d="M741.079 915.959c2.827,-0.182 6.874,-2.835 10.615,-4.418 0.171,-0.072 0.369,-0.153 0.538,-0.225 6.068,-2.604 1.339,-2.953 6.364,-4.079 -0.242,5.034 -2.559,8.611 -2.466,10.368 0.094,1.776 1.97,2.86 0.741,5.744 -1.188,2.785 -2.678,1.5 -4.861,2.509 1.03,3.637 5.848,2.098 8.771,1.972 4.183,-1.14 8.324,-3.479 12.06,-4.852 4.032,-1.483 7.723,-4.097 11.039,-6.126 9.377,-5.737 11.362,-6.568 20.537,-13.188 13.926,-10.049 21.124,-17.062 31.404,-28.552 2.078,-2.323 2.453,-1.857 3.717,-4.566 -0.155,-0.119 -0.345,-0.301 -0.448,-0.379l-1.886 -1.269c-1.541,-0.7 -1.248,-0.495 -3.216,-0.765 -3.963,3.321 -9.269,11.294 -17.186,11.414 0.523,-3.029 4.965,-11.855 6.92,-14.285 1.898,-2.358 4.906,-7.362 5.164,-10.578l-2.551 -1.959c-2.156,-2.085 1.594,-0.294 -1.961,-1.823l-0.682 0.85c-0.112,0.155 -0.501,0.705 -0.621,0.89 -3.033,4.692 -0.321,3.031 -3.832,3.668l10.98 -22.839c7.901,-17.789 12.778,-35.301 9.29,-55.419 -1.336,-7.706 -4.441,-19.129 -8.245,-24.313 0.45,4.709 1.779,9.017 2.175,14.053 1.364,17.315 1.415,26.903 -2.849,44.317 -6.345,25.915 -17.948,43.669 -34.981,61.755 -1.447,1.537 -2.743,2.546 -4.244,4.02 -15.455,15.187 -21.609,19.991 -40.444,32.211 -3.542,2.298 -6.869,3.497 -9.842,5.864z"/>
   <path class="fil14" d="M749.715 729.158c0.695,0.226 1.025,0.702 1.064,0.731l1.799 1.278c0.21,0.093 0.386,0.176 0.616,0.254l2.163 0.387c5.594,0.629 16.878,1.937 21.331,4.435l5.302 2.873c0.132,0.086 0.32,0.205 0.45,0.294l2.097 1.627c8.687,7.743 14.395,18.973 15.032,31.193 0.467,8.961 -0.566,13.196 -2.012,20.968 -2.853,15.331 -1.917,8.721 -5.766,18.152 -0.702,1.721 -0.738,2.025 -1.432,3.752 -0.302,0.75 -0.764,1.817 -0.929,2.124 -1.414,2.632 0.015,0.101 -1.238,1.88 -5.91,8.39 -1.274,2.839 -10.12,13.846 -0.654,0.813 -0.76,0.914 -1.358,1.706l-1.258 1.77c-0.047,0.067 -1.299,1.729 -1.302,1.731 -1.25,1.194 -0.058,0.683 -2.222,1.537 -1.936,-1.616 -0.682,0.077 -1.466,-2.89l-14.298 14.39c-0.117,0.116 -0.317,0.321 -0.465,0.491 2.296,1.542 3.379,0.654 5.272,-0.481 -4.496,2.26 -3.585,2.096 -7.638,5.051l-7.96 6.305c5.984,-0.137 5.283,-2.507 12.522,-1.737 3.526,0.375 1.281,0.019 6.009,-1.113 3.106,-0.744 3.303,0.254 4.278,-2.937 1.697,0.552 0.023,-1.051 1.36,1.642 0.06,0.12 0.136,0.418 0.225,0.618 -1.265,-1.068 -0.102,-0.611 -2.214,0.874 -0.102,0.071 -0.364,0.2 -0.542,0.306 -0.204,1.556 1.976,1.857 -2.82,4.515 -1.357,0.752 -4.159,1.653 -5.061,3.333 -0.277,0.516 -0.167,0.521 -0.229,0.819l0.05 0.821c12.44,-5.564 28.705,-22.208 35.558,-31.414 8.66,-11.634 17.074,-29.704 19.547,-47.038 2.702,-18.931 0.128,-42.928 -11.015,-53.096 -5.901,-5.384 -13.656,-8.132 -23.05,-9.711 -6.365,-1.071 -25.849,-2.659 -30.28,0.714z"/>
   <path class="fil15" d="M644.668 587.503c2.134,0.995 2.787,2.557 3.082,4.96 -0.14,0.142 -0.402,0.105 -0.481,0.357l-1.445 0.962c-2.257,1.708 -1.325,-1.77 -1.702,2.426 1.29,0.684 2.143,0.518 3.828,0.909 3.503,0.812 3.291,1.093 4.296,2.21l-6.649 0.183c3.761,1.287 3.121,0.394 5.623,1.993 6.291,4.025 4.262,1.095 4.902,4.445 -1.326,0.854 0.324,0.584 -1.698,0.497 -3.138,-0.135 -10.537,-5.998 -14.081,-4.243l2.122 1.224c0.138,0.074 0.331,0.189 0.476,0.263 5.586,2.864 4.456,-0.29 5.691,4.259l0.267 -0.214c9.615,0.184 14.147,4.701 18.77,8.064l5.405 3.511c0.868,0.565 1.322,0.725 2.314,1.476 8.982,6.796 8.672,2.023 10.17,8.591 1.972,0.351 2.291,0.518 3.619,0.93l1.325 -1.631c-1.077,-1.087 -1.977,-3.179 -2.816,-4.746l4.945 -2.287c0.753,-0.324 1.305,-0.505 1.777,-0.71 0.055,-9.446 -4.601,-7.527 -0.888,-11.238 -3.389,-1.343 -2.437,-1.319 -2.479,-5.989 0.288,0.081 0.656,-0.044 0.836,0.33l4.359 1.854c-34.514,-36.632 -96.26,-65.814 -148.423,-36.006 -12.371,7.069 -31.33,23.29 -35.398,34.967 0.203,-0.113 0.47,-0.561 0.566,-0.407l11.687 -11.973c1.743,-1.369 1.708,-0.824 3.519,-2.53l9.935 -7.992c21.298,-14.257 51.873,-20.026 76.95,-13.967 10.253,2.477 26.806,13.076 29.596,19.522z"/>
   <path class="fil16" d="M797.584 675.13l1.762 -1.453c0.104,-0.081 0.332,-0.249 0.499,-0.372l-17.23 -2.64c-0.018,-1.808 -0.093,-2.385 1.048,-3.485l4.125 -2.045 0.127 -5.76 9.489 -0.023c4.844,-0.648 -0.111,0.251 2.13,-1.064 6.339,-3.718 12.569,-2.789 20.013,-0.935l10.603 3.492c2.246,1.182 3.694,0.967 9.896,4.05l-2.974 -2.757c3.132,-2.233 2.53,-0.714 2.283,-5.238 8.946,-1.051 6.755,-0.207 8.136,-2.287 0.077,-0.116 0.211,-0.331 0.305,-0.454 2.05,-2.688 1.784,0.782 2.74,-3.175 -3.217,-3.015 -4.933,-2.692 -8.844,-4.633 -3.722,-1.849 -5.701,-2.371 -10.045,-3.397 -7.573,-1.789 -16.449,-2.021 -24.708,-1.297 -25.673,2.25 -53.621,18.758 -66.446,39.949 -3.752,6.198 -5.238,12.338 -7.703,19.243 -2.23,6.245 -4.567,14.817 -4.567,22.243l4.079 -11.422c1.187,-3.248 5.424,-11.664 7.698,-14.03 4.515,-4.698 3.822,-5.469 10.997,-10.664 13.988,-10.129 29.63,-12.001 46.587,-11.846z"/>
   <path class="fil17" d="M780.219 777.944c4.027,10.896 4.126,19.685 1.557,32.192 -1.889,9.195 -2.798,8.256 -5.069,14.4 -0.123,0.332 -0.751,2.01 -0.807,2.165 -0.081,0.231 -0.404,1.15 -0.582,1.759 -1.035,3.551 0.009,1.976 -2.896,5.828 -0.852,1.13 -1.188,1.475 -1.956,2.518 0.784,2.967 -0.47,1.274 1.466,2.89 2.164,-0.854 0.972,-0.343 2.222,-1.537 0.003,-0.002 1.255,-1.664 1.302,-1.731l1.258 -1.77c0.598,-0.792 0.704,-0.893 1.358,-1.706 8.846,-11.007 4.21,-5.456 10.12,-13.846 1.253,-1.779 -0.176,0.752 1.238,-1.88 0.165,-0.307 0.627,-1.374 0.929,-2.124 0.694,-1.727 0.73,-2.031 1.432,-3.752 3.849,-9.431 2.913,-2.821 5.766,-18.152 1.446,-7.772 2.479,-12.007 2.012,-20.968 -0.637,-12.22 -6.345,-23.45 -15.032,-31.193l-2.097 -1.627c-0.13,-0.089 -0.318,-0.208 -0.45,-0.294l-5.302 -2.873c-4.453,-2.498 -15.737,-3.806 -21.331,-4.435l-2.163 -0.387c-0.23,-0.078 -0.406,-0.161 -0.616,-0.254l-1.799 -1.278c-0.039,-0.029 -0.369,-0.505 -1.064,-0.731 -6.648,-0.383 -18.435,5.346 -22.515,8.345 15.168,1.02 25.78,4.371 34.607,11.937 8.556,7.333 14.267,14.024 18.412,28.504z"/>
   <path class="fil9" d="M613.818 676.236c2.575,-3.132 14.083,-8.703 18.731,-9.357 11.177,-1.57 25.251,-2.932 36.358,1.556 3.101,1.253 7.564,2.301 10.138,3.549l1.361 0.834c0.189,0.116 0.726,0.47 0.917,0.587l14.19 9.38c-1.105,-3.695 -0.938,-2.371 -4.601,-7.025 -2.63,-3.341 -1.446,-0.65 -5.334,-3.028 -4.289,-2.622 -1.897,-6.13 -6.82,-4.868 2.02,-1.214 1.277,1.765 1.626,-3.448 0.272,-4.067 -1.339,-4.352 -6.311,-8.567 -0.765,-0.647 -4.722,-2.664 -5.943,-3.188 -7.424,-3.182 -2.342,-4.331 -8.586,-5.759 -6.293,-1.438 -0.983,0.332 -4.193,-1.568 -5.12,-3.032 -18.554,-3.92 -24.289,-3.716 -11.725,0.418 -34.916,12.744 -35.639,20.883 -0.369,4.156 2.658,1.867 6.234,2.836 2.916,0.791 1.705,2.493 6.172,3.558 -0.237,2.347 -0.167,0.823 -1.028,1.856 -2.294,2.751 -0.535,-2.016 -1.784,1.876 1.969,1.243 2.312,0.675 5.094,0.651 0.689,0.959 0.325,2.09 3.707,2.958z"/>
   <path class="fil10" d="M648.899 607.734l5.71 3.228c1.911,0.857 3.543,1.711 5.532,2.758 8.708,4.586 22.285,14.837 28.315,22.491 4.405,5.592 10.542,14.129 13.182,20.667 1.721,4.261 3.929,6.804 5.56,10.81 1.002,2.463 3.766,10.694 5.549,11.557 2.261,-2.985 -0.145,-1.917 4.54,-9.631 2.002,-3.297 3.708,-6.225 5.499,-9.496 1.843,-3.365 3.35,-5.322 5.629,-8.555 2.02,-2.867 4.926,-5.549 6.193,-9.122 -2.534,1.398 -1.448,0.766 -3.131,2.949 -0.516,-1.278 -0.255,-0.77 0.982,-1.756 -1.383,-2.041 0.519,-0.482 -2.014,-1.096 -1.893,1.188 -3.23,-1.976 -4.328,-3.483 -6.142,-8.429 -22.337,-28.327 -29.881,-33.166l-4.359 -1.854c-0.18,-0.374 -0.548,-0.249 -0.836,-0.33 0.042,4.67 -0.91,4.646 2.479,5.989 -3.713,3.711 0.943,1.792 0.888,11.238 -0.472,0.205 -1.024,0.386 -1.777,0.71l-4.945 2.287c0.839,1.567 1.739,3.659 2.816,4.746l-1.325 1.631c-1.328,-0.412 -1.647,-0.579 -3.619,-0.93 -1.498,-6.568 -1.188,-1.795 -10.17,-8.591 -0.992,-0.751 -1.446,-0.911 -2.314,-1.476l-5.405 -3.511c-4.623,-3.363 -9.155,-7.88 -18.77,-8.064z"/>
   <path class="fil18" d="M715.286 781.503c1.286,-0.466 -1.435,0.011 1.983,-0.563 19.461,-3.267 24.464,18.539 10.329,25.746 -15.133,7.718 -26.365,-20.091 -12.312,-25.183zm29.116 21.486c3.594,-15.004 -7.482,-27.954 -19.83,-29.642 -25.342,-3.463 -39.653,20.982 -26.452,39.75 2.91,4.138 8.714,8.473 15.692,9.842 11.989,2.353 27.219,-5.878 30.59,-19.95z"/>
   <path class="fil19" d="M834.81 691.651c3.796,3.386 6.797,6.252 10.124,10.591 2.625,3.422 5.778,8.31 8.555,11.625l-0.076 -3.03c0.206,-0.118 0.525,-0.409 0.631,-0.23l4.559 -2.977c3.972,-6.212 7.065,-2.561 11.57,-2.758 1.674,-0.074 1.804,0.368 4.395,-3.46l11.341 20.631c0.217,0.408 0.741,1.371 0.798,1.493 0.101,0.214 0.379,0.854 0.471,1.077 0.072,0.177 0.138,0.379 0.207,0.558l1.045 2.679c0.072,0.161 0.169,0.35 0.243,0.511 0.073,0.162 0.172,0.349 0.246,0.511 9.928,21.923 3.675,33.527 5.499,37.994 3.528,-8.679 -0.804,-43.781 -3.552,-54.3 -1.808,-6.918 -4.126,-16.653 -6.899,-23.098 -2.008,-4.669 -8.068,-16.366 -11.314,-18.468 -4.972,-0.257 -1.371,-2.043 -6.995,-2.767 -2.407,4.56 1.919,3.58 -7.443,6.037 -0.052,2.166 -0.285,2.918 0.944,4.797 0.086,0.13 0.24,0.29 0.332,0.415 2.33,3.168 3.21,2.654 1.062,6.148 -1.901,3.091 -0.718,1.671 -1.718,4.532l-18.662 2.375c-1.632,0.052 -3.229,-0.69 -5.363,-0.886z"/>
   <path class="fil11" d="M797.584 675.13c11.525,0.27 23.868,6.939 31.765,12.213 -2.295,0.561 -0.477,0.609 -1.203,-1.49 3.57,-0.305 2.804,0.448 4.828,-1.683 0.115,-0.121 0.243,-0.3 0.346,-0.431l1.861 -4.026c2.143,1.487 9.15,-0.801 12.542,-0.894l0.412 -8.171 -8.089 -5.753c-6.202,-3.083 -7.65,-2.868 -9.896,-4.05l-10.603 -3.492c-7.444,-1.854 -13.674,-2.783 -20.013,0.935 -2.241,1.315 2.714,0.416 -2.13,1.064l-9.489 0.023 -0.127 5.76 -4.125 2.045c-1.141,1.1 -1.066,1.677 -1.048,3.485l17.23 2.64c-0.167,0.123 -0.395,0.291 -0.499,0.372l-1.762 1.453z"/>
   <path class="fil9" d="M741.079 915.959c-4.458,1.411 -10.013,5.172 -14.558,7.276 -8.581,3.973 -22.387,9.369 -31.655,11.732 -19.185,4.892 -9.507,-1.479 -15.52,0.631 1.85,3.31 0.373,1.271 4.523,2.524 2.15,0.65 2.919,1.163 4.96,1.893 14.392,5.148 13.061,9.554 31.632,3.236 6.3,-2.142 36.881,-12.076 40.32,-15.421 -2.923,0.126 -7.741,1.665 -8.771,-1.972 2.183,-1.009 3.673,0.276 4.861,-2.509 1.229,-2.884 -0.647,-3.968 -0.741,-5.744 -0.093,-1.757 2.224,-5.334 2.466,-10.368 -5.025,1.126 -0.296,1.475 -6.364,4.079 -0.169,0.072 -0.367,0.153 -0.538,0.225 -3.741,1.583 -7.788,4.236 -10.615,4.418z"/>
   <path class="fil10" d="M583.865 587.802l0.46 1.745c4.453,-0.918 3.009,-0.984 3.757,0.294 1.002,1.711 1.728,0.9 1.884,4.825 0.406,10.14 -1.017,4.419 24.648,5.72 11.865,0.602 16.004,2.138 25.192,5.086 2.608,0.837 6.351,1.926 8.826,2.476 -1.235,-4.549 -0.105,-1.395 -5.691,-4.259 -0.145,-0.074 -0.338,-0.189 -0.476,-0.263l-2.122 -1.224c3.544,-1.755 10.943,4.108 14.081,4.243 2.022,0.087 0.372,0.357 1.698,-0.497 -0.64,-3.35 1.389,-0.42 -4.902,-4.445 -2.502,-1.599 -1.862,-0.706 -5.623,-1.993l6.649 -0.183c-1.005,-1.117 -0.793,-1.398 -4.296,-2.21 -1.685,-0.391 -2.538,-0.225 -3.828,-0.909 0.377,-4.196 -0.555,-0.718 1.702,-2.426l1.445 -0.962c0.079,-0.252 0.341,-0.215 0.481,-0.357 -0.295,-2.403 -0.948,-3.965 -3.082,-4.96 -13.335,-1.678 -50.114,-4.952 -60.803,0.299z"/>
   <path class="fil20" d="M658.807 736.379c0.159,-0.192 0.101,-0.458 0.135,-0.537 1.44,-3.355 1.327,1.206 0.614,-0.812 -30.376,-1.938 -22.199,51.499 6.971,30.726 9.422,-6.71 11.19,-28.218 -7.72,-29.377z"/>
   <path class="fil21" d="M840.046 664.895l8.089 5.753 -0.412 8.171c-3.392,0.093 -10.399,2.381 -12.542,0.894l-1.861 4.026c-0.103,0.131 -0.231,0.31 -0.346,0.431 -2.024,2.131 -1.258,1.378 -4.828,1.683 0.726,2.099 -1.092,2.051 1.203,1.49 1.922,1.465 3.798,3.165 5.461,4.308 2.134,0.196 3.731,0.938 5.363,0.886l18.662 -2.375c1,-2.861 -0.183,-1.441 1.718,-4.532 2.148,-3.494 1.268,-2.98 -1.062,-6.148 -0.092,-0.125 -0.246,-0.285 -0.332,-0.415 -1.229,-1.879 -0.996,-2.631 -0.944,-4.797 9.362,-2.457 5.036,-1.477 7.443,-6.037 5.624,0.724 2.023,2.51 6.995,2.767 -3.899,-7.956 -14.703,-16.275 -22.117,-20.016 -0.956,3.957 -0.69,0.487 -2.74,3.175 -0.094,0.123 -0.228,0.338 -0.305,0.454 -1.381,2.08 0.81,1.236 -8.136,2.287 0.247,4.524 0.849,3.005 -2.283,5.238l2.974 2.757z"/>
   <path class="fil9" d="M831.598 584.221l3.092 0.782c0.575,-0.041 4.076,-1.451 9.891,-1.808 9.917,-0.609 13.486,1.861 19.956,3.341 2.871,0.657 4.709,0.367 7.115,1.412 3.079,1.338 8.595,2.924 11.133,4.63 4.421,2.972 3.641,1.529 9.67,5.94 3.587,2.626 5.149,2.883 9.162,6.601 3.085,2.858 5.052,5.888 7.799,7.9 8.963,6.563 20.164,-5.902 -2.12,-18.889 -4.372,-2.547 -0.701,-1.186 -9.632,-5.958 -15.288,-8.17 -36.575,-10.95 -54.03,-7.836l-8.935 2.166c-0.633,0.285 -0.91,0.417 -1.529,0.757 -1.613,0.885 -0.587,0.2 -1.572,0.962z"/>
   <path class="fil22" d="M695.439 537.512c-12.305,2.566 -18.862,-1.948 -24.192,-8.441 -1.971,-2.4 -5.385,-7.158 -5.549,-11.639 -0.165,-4.485 2.553,-9.36 4.744,-10.97 -16.107,-0.455 -23.893,31.651 -2.559,45.495 3.983,2.585 6.881,1.29 10.896,-0.956 5.301,-2.963 14.309,-9.304 16.66,-13.489z"/>
   <path class="fil23" d="M695.439 537.512c2.95,-1.773 7.028,-5.41 8.204,-9.596l0.753 -4.465c-3.933,2.141 -7.167,3.321 -12.08,0.3 -1.793,-1.102 -3.099,-2.284 -4.646,-3.581 -0.116,-0.097 -2.317,-1.872 -2.486,-2.086 -1.446,-1.821 -1.176,1.247 -0.884,-2.547 -2.917,-0.668 -1.048,0.348 -3.235,-2.27 -1.157,-1.385 -1.605,-2.058 -2.765,-3.224 -2.362,-2.377 -3.296,-3.516 -7.858,-3.581 -2.191,1.61 -4.909,6.485 -4.744,10.97 0.164,4.481 3.578,9.239 5.549,11.639 5.33,6.493 11.887,11.007 24.192,8.441z"/>
   <path class="fil24" d="M715.286 781.503c-14.053,5.092 -2.821,32.901 12.312,25.183 14.135,-7.207 9.132,-29.013 -10.329,-25.746 -3.418,0.574 -0.697,0.097 -1.983,0.563z"/>
   <path class="fil16" d="M723.944 572.04c-14.714,4.048 -8.903,28.915 7.212,24.701 13.046,-3.412 8.766,-29.096 -7.212,-24.701z"/>
   <path class="fil14" d="M684.3 515.537c-0.292,3.794 -0.562,0.726 0.884,2.547 0.169,0.214 2.37,1.989 2.486,2.086 1.547,1.297 2.853,2.479 4.646,3.581 4.913,3.021 8.147,1.841 12.08,-0.3l-0.753 4.465c9.305,-10.101 -4.645,-33.294 -19.343,-12.379z"/>
   <path class="fil14" d="M753.12 524.806c-10.324,3.697 -5.352,21.398 5.514,16.177 9.813,-4.716 5.887,-20.26 -5.514,-16.177z"/>
   <path class="fil25" d="M628.099 721.389c8.169,-11.073 5.324,-14.149 23.075,-16.108 -8.104,-4.204 -22.462,-11.668 -24.74,4.895 -0.966,7.029 0.868,8.285 1.665,11.213z"/>
  </g>
 </g>
</svg>
